<svg width="74" height="75" viewBox="0 0 74 75" fill="none" xmlns="http://www.w3.org/2000/svg">
<path d="M37 74.0817C57.4345 74.0817 74 57.5162 74 37.0817C74 16.6472 57.4345 0.081707 37 0.081707C16.5655 0.081707 0 16.6472 0 37.0817C0 57.5162 16.5655 74.0817 37 74.0817Z" fill="#F7942C"/>
<mask id="mask0_6_66" style="mask-type:luminance" maskUnits="userSpaceOnUse" x="0" y="0" width="74" height="75">
<path d="M37 74.1597C57.4345 74.1597 74 57.5943 74 37.1597C74 16.7252 57.4345 0.159729 37 0.159729C16.5655 0.159729 0 16.7252 0 37.1597C0 57.5943 16.5655 74.1597 37 74.1597Z" fill="white"/>
</mask>
<g mask="url(#mask0_6_66)">
<path d="M25.1578 51.834C27.081 52.0956 28.3616 53.9592 27.9209 55.8456L23.6293 74.123C23.3631 75.2522 22.2844 75.9912 21.1369 75.8351C19.9206 75.6699 19.0622 74.5591 19.2091 73.3381L21.449 54.6981C21.6693 52.8759 23.3401 51.5815 25.1578 51.8294V51.834Z" fill="white"/>
<path d="M21.4536 77.5977C21.2746 77.5977 21.091 77.5839 20.9074 77.5609C18.7639 77.2718 17.2263 75.2843 17.4833 73.1316L19.7232 54.4916C19.8839 53.1421 20.5678 51.9441 21.6418 51.1134C22.7159 50.2826 24.047 49.9245 25.3965 50.1081C26.7964 50.2963 28.0632 51.0766 28.8619 52.2425C29.6652 53.4084 29.9406 54.868 29.6147 56.245L25.323 74.5224C24.8961 76.3538 23.2805 77.5977 21.4536 77.6023V77.5977ZM24.7125 53.5415C24.3729 53.5415 24.0424 53.6516 23.767 53.8674C23.4365 54.1244 23.2254 54.4916 23.1749 54.9093L20.935 73.5493C20.9028 73.8247 21.0956 74.0771 21.371 74.1139C21.6372 74.1506 21.8759 73.9807 21.9356 73.7283L26.2272 55.4509C26.3282 55.0194 26.2456 54.5834 25.9932 54.2162C25.7407 53.849 25.3643 53.6195 24.9237 53.5598C24.8502 53.5506 24.7814 53.5461 24.7125 53.5461V53.5415Z" fill="black"/>
<path d="M31.9602 68.5003C33.8237 68.4222 35.3476 69.9645 35.2466 71.828L34.2781 89.8254C34.2185 90.9362 33.3234 91.8175 32.2126 91.8634C31.033 91.9139 30.037 91.0096 29.9681 89.83L28.9354 71.8372C28.8344 70.0746 30.193 68.5737 31.9556 68.5003H31.9602Z" fill="white"/>
<path d="M32.1208 93.5341C30.1104 93.5341 28.4167 91.946 28.2974 89.9264L27.2646 71.9336C27.1912 70.63 27.6318 69.3816 28.5039 68.4177C29.3806 67.4492 30.5786 66.8892 31.8822 66.8341C33.2408 66.779 34.5673 67.2977 35.5174 68.2662C36.4676 69.2347 36.9771 70.5658 36.9036 71.9198L35.9351 89.9172C35.8296 91.8955 34.2552 93.4515 32.2723 93.5341C32.2172 93.5341 32.1667 93.5341 32.1117 93.5341H32.1208ZM32.029 70.1664C31.6251 70.1848 31.2579 70.3546 30.9871 70.653C30.7163 70.9513 30.5832 71.3369 30.6061 71.7362L31.6389 89.729C31.6527 89.9952 31.8913 90.1972 32.1438 90.188C32.3962 90.1788 32.5982 89.9769 32.612 89.7244L33.5805 71.727C33.6034 71.3048 33.4519 70.9008 33.1536 70.5979C32.8552 70.295 32.4651 70.1389 32.0336 70.1573L32.029 70.1664Z" fill="black"/>
<path d="M40.0386 73.7329C51.1545 73.7329 60.1657 66.0492 60.1657 56.5709C60.1657 47.0925 51.1545 39.4088 40.0386 39.4088C28.9227 39.4088 19.9114 47.0925 19.9114 56.5709C19.9114 66.0492 28.9227 73.7329 40.0386 73.7329Z" fill="white"/>
<path d="M40.0386 75.523C27.9531 75.523 18.1167 67.0223 18.1167 56.5709C18.1167 46.1194 27.9485 37.6187 40.0386 37.6187C52.1286 37.6187 61.9604 46.1194 61.9604 56.5709C61.9604 67.0223 52.1286 75.523 40.0386 75.523ZM40.0386 41.2035C29.9268 41.2035 21.7015 48.0977 21.7015 56.5709C21.7015 65.044 29.9268 71.9382 40.0386 71.9382C50.1504 71.9382 58.371 65.044 58.371 56.5709C58.371 48.0977 50.1458 41.2035 40.0386 41.2035Z" fill="black"/>
<path d="M54.1207 52.4353C55.9888 51.8982 57.9074 53.087 58.2655 54.9965L61.6988 73.4529C61.9099 74.5912 61.2214 75.7066 60.1107 76.0233C58.931 76.3629 57.6963 75.6928 57.3383 74.5178L51.8808 56.5525C51.3483 54.7945 52.3581 52.9402 54.1207 52.4307V52.4353Z" fill="white"/>
<path d="M59.5002 77.8547C57.7881 77.8547 56.1908 76.7393 55.6721 75.0273L50.2146 57.062C49.8199 55.763 49.9622 54.386 50.6094 53.1972C51.2566 52.0038 52.3352 51.1409 53.6388 50.7645C54.9974 50.3744 56.4708 50.5763 57.6734 51.3199C58.876 52.0635 59.7159 53.289 59.973 54.6798L63.4063 73.1362C63.7827 75.165 62.5709 77.1295 60.5834 77.6986C60.2208 77.8042 59.8536 77.8501 59.4956 77.8501L59.5002 77.8547ZM55.0341 54.0464C54.8918 54.0464 54.745 54.0647 54.6027 54.106C54.1987 54.2208 53.8683 54.487 53.6663 54.8542C53.4643 55.2214 53.423 55.6437 53.5424 56.0476L58.9999 74.0129C59.0779 74.2791 59.3579 74.4306 59.6241 74.3525C59.8766 74.2791 60.0326 74.0312 59.9821 73.7696L56.5488 55.3132C56.4662 54.8772 56.2138 54.51 55.8374 54.2759C55.5895 54.1198 55.3095 54.0418 55.0249 54.0418L55.0341 54.0464Z" fill="black"/>
</g>
<path d="M40.0661 40.3314C41.7736 30.4996 38.6662 26.0932 38.6662 26.0932L42.0903 22.4855C42.0903 22.4855 50.2054 40.3177 45.8587 41.9104C41.512 43.5031 40.0707 40.3314 40.0707 40.3314H40.0661Z" fill="white"/>
<path d="M43.5637 44.0906C40.7179 44.0906 39.0517 42.2776 38.4917 41.0475C38.3494 40.7308 38.3035 40.3773 38.3632 40.0377C39.9009 31.179 37.2708 27.1168 37.2433 27.0801C36.7934 26.41 36.8577 25.4965 37.4131 24.909L40.8372 21.3013C41.232 20.8836 41.8103 20.6908 42.3795 20.7872C42.9486 20.8836 43.4306 21.2554 43.6693 21.7786C44.803 24.2756 50.3752 36.9624 48.4429 41.5799C47.938 42.7871 47.0842 43.3149 46.4554 43.5444C45.3859 43.9346 44.422 44.0998 43.5683 44.0998L43.5637 44.0906ZM41.8837 39.9505C42.3152 40.4324 43.2699 40.997 45.2161 40.2993C46.0285 39.1839 44.6332 32.9324 41.5487 25.57L40.773 26.387C41.6726 28.4112 42.9945 32.8405 41.8837 39.9505Z" fill="black"/>
<path d="M11.3281 15.6877L10.0337 52.0359L37.7619 53.2615L38.634 33.6254L52.8952 34.2589L60.8863 26.8047L63.4659 13.636L55.7639 3.68485L35.5725 1.83508L16.5056 3.27634L11.0206 11.7678L11.3281 15.6877Z" fill="white"/>
<path d="M29.2429 37.6187C29.4357 36.843 28.7059 36.1729 27.9394 36.3932C27.2325 36.5998 26.2778 36.7512 25.0431 36.7191C23.4779 36.6778 22.2753 36.3473 21.4491 36.0122C20.7422 35.7277 19.9895 36.2739 20.0262 37.0312C20.1272 39.0462 20.8203 42.1491 24.0057 42.8009C27.1912 43.4526 28.6508 39.978 29.2429 37.6142V37.6187Z" fill="black"/>
<path d="M21.4897 26.2829C21.7512 23.3362 20.7881 20.8431 19.3387 20.7145C17.8893 20.5859 16.5024 22.8705 16.241 25.8173C15.9796 28.764 16.9426 31.2571 18.392 31.3857C19.8414 31.5143 21.2283 29.2297 21.4897 26.2829Z" fill="black"/>
<path d="M21.9723 25.0238L18.7823 26.5706L22.0641 27.0526L21.9723 25.0238Z" fill="white"/>
<path d="M34.5331 26.7067C34.7946 23.76 33.8316 21.2669 32.3822 21.1383C30.9328 21.0097 29.5459 23.2943 29.2844 26.2411C29.023 29.1878 29.986 31.6809 31.4354 31.8095C32.8848 31.9381 34.2717 29.6535 34.5331 26.7067Z" fill="black"/>
<path d="M35.0125 25.446L31.8271 26.9975L35.1089 27.4794L35.0125 25.446Z" fill="white"/>
<path d="M42.8064 4.67629L25.9886 3.93271C22.8766 3.79501 19.838 4.89661 17.5384 7.00343C15.2388 9.10565 13.871 12.0341 13.7333 15.1461L12.2186 49.3829C12.1957 49.9108 12.6042 50.356 13.132 50.3835L34.6821 51.3382C35.2099 51.3612 35.6552 50.9527 35.6827 50.4248L37.1148 18.1434C37.3581 12.6124 39.5613 7.76996 42.8064 4.68088V4.67629ZM51.5825 1.14658C59.1422 1.48165 64.921 9.6335 64.4895 19.3505C64.0581 29.0676 57.5816 36.6778 50.0219 36.3427L40.2452 35.9113L39.4557 53.7755C39.4144 54.7073 38.6249 55.4325 37.6931 55.3912L9.78591 54.1565C8.85414 54.1152 8.12892 53.3257 8.17023 52.394L9.82722 14.9763C10.0108 10.8269 11.8331 6.92081 14.8992 4.11631C17.9607 1.30723 22.0137 -0.166157 26.163 0.0174432L51.5825 1.14199V1.14658ZM41.0255 18.3132L40.4196 32.0006L50.1963 32.432C55.3509 32.6615 60.2346 26.9194 60.5789 19.1761C60.9231 11.4328 56.5626 5.28217 51.408 5.05726C46.2535 4.83235 41.3697 10.5699 41.0255 18.3132Z" fill="black"/>
<path d="M50.7792 22.692C52.6753 22.692 54.2125 21.1549 54.2125 19.2587C54.2125 17.3626 52.6753 15.8254 50.7792 15.8254C48.883 15.8254 47.3459 17.3626 47.3459 19.2587C47.3459 21.1549 48.883 22.692 50.7792 22.692Z" fill="black"/>
<path d="M50.7838 24.0415C50.7104 24.0415 50.6369 24.0415 50.5681 24.0369C47.9334 23.9222 45.8817 21.6822 46.001 19.0476C46.1204 16.4129 48.3511 14.3612 50.9949 14.4805C52.271 14.5356 53.4506 15.0864 54.3135 16.032C55.1764 16.9729 55.6217 18.1984 55.562 19.4745C55.5069 20.7505 54.9561 21.9301 54.0106 22.793C53.1201 23.6055 51.9818 24.0461 50.7838 24.0461V24.0415ZM50.7792 17.1749C49.673 17.1749 48.7504 18.047 48.6999 19.1623C48.6494 20.3098 49.5399 21.2829 50.6874 21.3334C51.2474 21.3609 51.7752 21.1636 52.1837 20.7918C52.5923 20.4154 52.8309 19.9059 52.8585 19.3505C52.8814 18.7951 52.6887 18.2627 52.3169 17.8542C51.9451 17.4457 51.431 17.2024 50.8756 17.1795C50.8435 17.1795 50.8113 17.1795 50.7838 17.1795L50.7792 17.1749Z" fill="black"/>
<path d="M21.2798 17.4397C21.3113 16.7306 20.4027 16.1143 19.2504 16.0632C18.0981 16.0121 17.1385 16.5455 17.107 17.2546C17.0756 17.9637 17.9842 18.58 19.1365 18.6311C20.2888 18.6822 21.2484 18.1488 21.2798 17.4397Z" fill="black"/>
<path d="M33.906 17.9954C33.9375 17.2863 33.0289 16.67 31.8766 16.6189C30.7243 16.5678 29.7647 17.1012 29.7332 17.8103C29.7018 18.5194 30.6104 19.1357 31.7627 19.1868C32.915 19.2379 33.8746 18.7045 33.906 17.9954Z" fill="black"/>
</svg>
