<svg width="73" height="75" viewBox="0 0 73 75" fill="none" xmlns="http://www.w3.org/2000/svg">
<rect x="1" y="1" width="70.2659" height="73" rx="35.133" fill="#FAEDDE" stroke="#593811" stroke-width="2"/>
<rect x="8.67194" y="9" width="54.9221" height="57" rx="27.461" fill="#F7942C"/>
<path d="M21.9823 54.1861V29.3954L23.3604 25.5814L26.1166 21.7675L37.6007 20.814H48.1661L52.3004 24.1512L54.5972 30.3488L53.2191 36.5465L49.5442 41.314L38.5194 41.7907V54.1861H21.9823Z" fill="white"/>
<path d="M41.2699 22.125H30.6528C28.6883 22.125 26.8042 22.9349 25.4151 24.3766C24.0259 25.8183 23.2455 27.7736 23.2455 29.8125V52.875H38.0601V31.0938C38.0601 27.4704 39.3119 24.2391 41.2699 22.125ZM46.7019 19.5625C51.4746 19.5625 55.3436 24.7259 55.3436 31.0938C55.3436 37.4616 51.4746 42.625 46.7019 42.625H40.5291V55.4375H20.7765V29.8125C20.7765 27.094 21.817 24.4869 23.6692 22.5647C25.5213 20.6424 28.0334 19.5625 30.6528 19.5625H46.7019ZM40.5291 31.0938V40.0625H46.7019C49.9561 40.0625 52.8746 36.1675 52.8746 31.0938C52.8746 26.02 49.9561 22.125 46.7019 22.125C43.4476 22.125 40.5291 26.02 40.5291 31.0938Z" fill="#593811"/>
<path d="M46.7018 34.9375C45.3389 34.9375 44.2328 33.2155 44.2328 31.0938C44.2328 28.972 45.3389 27.25 46.7018 27.25C48.0648 27.25 49.1709 28.972 49.1709 31.0938C49.1709 33.2155 48.0648 34.9375 46.7018 34.9375Z" fill="#593811"/>
</svg>
