<svg width="150" height="150" viewBox="0 0 150 150" fill="none" xmlns="http://www.w3.org/2000/svg">
<g clip-path="url(#clip0_1_2)">
<rect width="150" height="150"/>
<circle cx="75" cy="75" r="75" fill="#FFCA0E"/>
<path d="M93.5714 27C91.8854 27 90.2684 27.6673 89.0763 28.855C87.8841 30.0427 87.2143 31.6536 87.2143 33.3333V61.8333H37.9464C35.8389 61.8333 33.8177 62.6674 32.3275 64.1521C30.8372 65.6367 30 67.6504 30 69.75V76.0833C29.9996 77.2962 30.465 78.4633 31.3007 79.3453C32.1364 80.2273 33.2791 80.7575 34.4945 80.827C36.3597 87.3805 40.1126 93.2453 45.2889 97.6958C47.034 99.1968 48.9284 100.533 50.9531 101.673L46.2012 111.138C45.9056 111.727 45.4796 112.573 45.1586 113.46C44.8408 114.337 44.4911 115.607 44.6564 116.975C44.8471 118.558 45.7117 120.011 47.301 120.933C48.6995 121.737 50.4223 122 52.25 122H96.75C99.3723 122 101.731 120.727 103.368 119.093C105.005 117.462 106.286 115.113 106.286 112.5V87.1667C106.286 86.318 106.778 85.1812 107.7 83.924C110.808 83.5774 113.679 82.1016 115.764 79.7788C117.849 77.456 119.001 74.4492 119 71.3333V33.3333C119 31.6536 118.33 30.0427 117.138 28.855C115.946 27.6673 114.329 27 112.643 27H93.5714ZM56.7509 104.276C60.4166 105.532 64.2665 106.171 68.1429 106.167C81.5564 106.167 93.9338 99.5768 99.9286 88.4903V112.5C99.9286 113.054 99.6171 113.871 98.8733 114.615C98.1263 115.359 97.3063 115.667 96.75 115.667H52.25C51.7859 115.667 51.4204 115.641 51.1407 115.603C51.325 115.1 51.592 114.558 51.9131 113.916L56.7509 104.276ZM91.9821 77.6667C93.0438 79.0758 94.5695 80.1208 96.3304 80.58C92.9707 92.1922 81.566 99.8333 68.1429 99.8333C60.8639 99.8333 54.2207 97.1258 49.1731 92.6672C44.6959 88.7195 41.5724 83.4737 40.2414 77.6667H91.9821ZM90.5518 74.5H36.3571V69.75C36.3571 69.3301 36.5246 68.9273 36.8226 68.6304C37.1207 68.3335 37.5249 68.1667 37.9464 68.1667H90.3929V72.9167C90.3929 73.4582 90.4469 73.987 90.5518 74.5ZM112.643 71.3333C112.643 73.013 111.973 74.6239 110.781 75.8117C109.589 76.9994 107.972 77.6667 106.286 77.6667H98.3393C97.0748 77.6667 95.8621 77.1662 94.9679 76.2754C94.0738 75.3846 93.5714 74.1764 93.5714 72.9167V33.3333H112.643V71.3333Z" fill="#593811"/>
</g>
<defs>
<clipPath id="clip0_1_2">
<rect width="150" height="150" fill="white"/>
</clipPath>
</defs>
</svg>
